<svg xmlns="http://www.w3.org/2000/svg" xmlns:xlink="http://www.w3.org/1999/xlink" width="500" zoomAndPan="magnify" viewBox="0 0 375 374.999991" height="500" preserveAspectRatio="xMidYMid meet" version="1.0"><defs><g/><clipPath id="06b2a9da70"><path d="M 0 148.636719 L 375 148.636719 L 375 226.363281 L 0 226.363281 Z M 0 148.636719 " clip-rule="nonzero"/></clipPath></defs><rect x="-37.5" width="450" fill="#ffffff" y="-37.499999" height="449.999989" fill-opacity="1"/><rect x="-37.5" width="450" fill="#ffffff" y="-37.499999" height="449.999989" fill-opacity="1"/><g clip-path="url(#06b2a9da70)"><path fill="#09850d" d="M 0 148.636719 L 374.980469 148.636719 L 374.980469 226.363281 L 0 226.363281 Z M 0 148.636719 " fill-opacity="1" fill-rule="nonzero"/></g><g fill="#ffffff" fill-opacity="1"><g transform="translate(10.763292, 205.124987)"><g><path d="M 19.5 -35 C 22.664062 -35 25.414062 -34.472656 27.75 -33.421875 C 30.082031 -32.367188 31.878906 -30.867188 33.140625 -28.921875 C 34.410156 -26.972656 35.046875 -24.679688 35.046875 -22.046875 C 35.046875 -19.410156 34.410156 -17.125 33.140625 -15.1875 C 31.878906 -13.257812 30.082031 -11.769531 27.75 -10.71875 C 25.414062 -9.675781 22.664062 -9.15625 19.5 -9.15625 L 13.40625 -9.15625 L 13.40625 0 L 3.5 0 L 3.5 -35 Z M 18.90625 -16.953125 C 20.9375 -16.953125 22.46875 -17.390625 23.5 -18.265625 C 24.53125 -19.148438 25.046875 -20.410156 25.046875 -22.046875 C 25.046875 -23.679688 24.53125 -24.945312 23.5 -25.84375 C 22.46875 -26.75 20.9375 -27.203125 18.90625 -27.203125 L 13.40625 -27.203125 L 13.40625 -16.953125 Z M 18.90625 -16.953125 "/></g></g></g><g fill="#ffffff" fill-opacity="1"><g transform="translate(57.607607, 205.124987)"><g><path d="M 3.5 -35 L 13.40625 -35 L 13.40625 0 L 3.5 0 Z M 3.5 -35 "/></g></g></g><g fill="#ffffff" fill-opacity="1"><g transform="translate(84.554997, 205.124987)"><g><path d="M 22.25 -12.546875 L 22.25 0 L 12.34375 0 L 12.34375 -12.703125 L -1 -35 L 9.453125 -35 L 17.75 -21.09375 L 26.046875 -35 L 35.65625 -35 Z M 22.25 -12.546875 "/></g></g></g><g fill="#ffffff" fill-opacity="1"><g transform="translate(129.199655, 205.124987)"><g><path d="M 19.65625 0.703125 C 14.445312 0.703125 10.398438 -0.710938 7.515625 -3.546875 C 4.640625 -6.378906 3.203125 -10.394531 3.203125 -15.59375 L 3.203125 -35 L 13.09375 -35 L 13.09375 -15.90625 C 13.09375 -10.300781 15.3125 -7.5 19.75 -7.5 C 24.144531 -7.5 26.34375 -10.300781 26.34375 -15.90625 L 26.34375 -35 L 36.09375 -35 L 36.09375 -15.59375 C 36.09375 -10.394531 34.648438 -6.378906 31.765625 -3.546875 C 28.890625 -0.710938 24.851562 0.703125 19.65625 0.703125 Z M 19.65625 0.703125 "/></g></g></g><g fill="#ffffff" fill-opacity="1"><g transform="translate(178.493589, 205.124987)"><g><path d="M 35.09375 0 L 35 -18.546875 L 26 -3.453125 L 21.59375 -3.453125 L 12.65625 -18.046875 L 12.65625 0 L 3.5 0 L 3.5 -35 L 11.65625 -35 L 23.953125 -14.796875 L 35.953125 -35 L 44.09375 -35 L 44.203125 0 Z M 35.09375 0 "/></g></g></g><g fill="#ffffff" fill-opacity="1"><g transform="translate(236.186228, 205.124987)"><g><path d="M 26.953125 -6.796875 L 12.15625 -6.796875 L 9.40625 0 L -0.703125 0 L 14.75 -35 L 24.5 -35 L 40 0 L 29.703125 0 Z M 24.046875 -14.09375 L 19.546875 -25.296875 L 15.046875 -14.09375 Z M 24.046875 -14.09375 "/></g></g></g><g fill="#ffffff" fill-opacity="1"><g transform="translate(285.480162, 205.124987)"><g><path d="M 18.796875 -9.296875 L 13.40625 -9.296875 L 13.40625 0 L 3.5 0 L 3.5 -35 L 19.5 -35 C 22.664062 -35 25.414062 -34.472656 27.75 -33.421875 C 30.082031 -32.367188 31.878906 -30.867188 33.140625 -28.921875 C 34.410156 -26.972656 35.046875 -24.679688 35.046875 -22.046875 C 35.046875 -19.515625 34.453125 -17.304688 33.265625 -15.421875 C 32.085938 -13.535156 30.398438 -12.0625 28.203125 -11 L 35.75 0 L 25.15625 0 Z M 25.046875 -22.046875 C 25.046875 -23.679688 24.53125 -24.945312 23.5 -25.84375 C 22.46875 -26.75 20.9375 -27.203125 18.90625 -27.203125 L 13.40625 -27.203125 L 13.40625 -16.953125 L 18.90625 -16.953125 C 20.9375 -16.953125 22.46875 -17.390625 23.5 -18.265625 C 24.53125 -19.148438 25.046875 -20.410156 25.046875 -22.046875 Z M 25.046875 -22.046875 "/></g></g></g><g fill="#ffffff" fill-opacity="1"><g transform="translate(332.474452, 205.124987)"><g><path d="M 10.953125 -27.15625 L 0.203125 -27.15625 L 0.203125 -35 L 31.546875 -35 L 31.546875 -27.15625 L 20.84375 -27.15625 L 20.84375 0 L 10.953125 0 Z M 10.953125 -27.15625 "/></g></g></g></svg>