<svg xmlns="http://www.w3.org/2000/svg" xmlns:xlink="http://www.w3.org/1999/xlink" width="240" zoomAndPan="magnify" viewBox="0 0 180 30.000001" height="40" preserveAspectRatio="xMidYMid meet" version="1.0"><defs><g/><clipPath id="ec7aa4a337"><path d="M 2.902344 0 L 177.097656 0 L 177.097656 29.03125 L 2.902344 29.03125 Z M 2.902344 0 " clip-rule="nonzero"/></clipPath></defs><g clip-path="url(#ec7aa4a337)"><path fill="#ffffff" d="M 2.902344 0 L 177.097656 0 L 177.097656 29.03125 L 2.902344 29.03125 Z M 2.902344 0 " fill-opacity="1" fill-rule="nonzero"/><path fill="#09850d" d="M 2.902344 0 L 177.097656 0 L 177.097656 29.03125 L 2.902344 29.03125 Z M 2.902344 0 " fill-opacity="1" fill-rule="nonzero"/></g><g fill="#ffffff" fill-opacity="1"><g transform="translate(26.356602, 21.411292)"><g><path d="M 7.46875 -13.546875 C 8.664062 -13.546875 9.707031 -13.34375 10.59375 -12.9375 C 11.476562 -12.539062 12.15625 -11.972656 12.625 -11.234375 C 13.101562 -10.503906 13.34375 -9.632812 13.34375 -8.625 C 13.34375 -7.632812 13.101562 -6.765625 12.625 -6.015625 C 12.15625 -5.273438 11.476562 -4.707031 10.59375 -4.3125 C 9.707031 -3.925781 8.664062 -3.734375 7.46875 -3.734375 L 4.734375 -3.734375 L 4.734375 0 L 1.609375 0 L 1.609375 -13.546875 Z M 7.296875 -6.28125 C 8.234375 -6.28125 8.945312 -6.484375 9.4375 -6.890625 C 9.925781 -7.296875 10.171875 -7.875 10.171875 -8.625 C 10.171875 -9.382812 9.925781 -9.96875 9.4375 -10.375 C 8.945312 -10.78125 8.234375 -10.984375 7.296875 -10.984375 L 4.734375 -10.984375 L 4.734375 -6.28125 Z M 7.296875 -6.28125 "/></g></g></g><g fill="#ffffff" fill-opacity="1"><g transform="translate(43.228435, 21.411292)"><g><path d="M 1.609375 -13.546875 L 4.734375 -13.546875 L 4.734375 0 L 1.609375 0 Z M 1.609375 -13.546875 "/></g></g></g><g fill="#ffffff" fill-opacity="1"><g transform="translate(52.284004, 21.411292)"><g><path d="M 8.109375 -4.796875 L 8.109375 0 L 4.96875 0 L 4.96875 -4.84375 L -0.265625 -13.546875 L 3.0625 -13.546875 L 6.671875 -7.53125 L 10.296875 -13.546875 L 13.359375 -13.546875 Z M 8.109375 -4.796875 "/></g></g></g><g fill="#ffffff" fill-opacity="1"><g transform="translate(68.072398, 21.411292)"><g><path d="M 7.625 0.234375 C 5.6875 0.234375 4.175781 -0.300781 3.09375 -1.375 C 2.019531 -2.445312 1.484375 -3.972656 1.484375 -5.953125 L 1.484375 -13.546875 L 4.625 -13.546875 L 4.625 -6.078125 C 4.625 -3.648438 5.628906 -2.4375 7.640625 -2.4375 C 8.617188 -2.4375 9.363281 -2.726562 9.875 -3.3125 C 10.394531 -3.90625 10.65625 -4.828125 10.65625 -6.078125 L 10.65625 -13.546875 L 13.75 -13.546875 L 13.75 -5.953125 C 13.75 -3.972656 13.207031 -2.445312 12.125 -1.375 C 11.050781 -0.300781 9.550781 0.234375 7.625 0.234375 Z M 7.625 0.234375 "/></g></g></g><g fill="#ffffff" fill-opacity="1"><g transform="translate(86.02768, 21.411292)"><g><path d="M 13.921875 0 L 13.90625 -8.125 L 9.921875 -1.4375 L 8.515625 -1.4375 L 4.546875 -7.953125 L 4.546875 0 L 1.609375 0 L 1.609375 -13.546875 L 4.203125 -13.546875 L 9.265625 -5.125 L 14.25 -13.546875 L 16.828125 -13.546875 L 16.875 0 Z M 13.921875 0 "/></g></g></g><g fill="#ffffff" fill-opacity="1"><g transform="translate(107.213939, 21.411292)"><g><path d="M 10.515625 -2.90625 L 4.234375 -2.90625 L 3.03125 0 L -0.171875 0 L 5.859375 -13.546875 L 8.953125 -13.546875 L 15.015625 0 L 11.71875 0 Z M 9.53125 -5.28125 L 7.390625 -10.46875 L 5.234375 -5.28125 Z M 9.53125 -5.28125 "/></g></g></g><g fill="#ffffff" fill-opacity="1"><g transform="translate(124.743578, 21.411292)"><g><path d="M 10.234375 0 L 7.625 -3.765625 L 4.734375 -3.765625 L 4.734375 0 L 1.609375 0 L 1.609375 -13.546875 L 7.46875 -13.546875 C 8.664062 -13.546875 9.707031 -13.34375 10.59375 -12.9375 C 11.476562 -12.539062 12.15625 -11.972656 12.625 -11.234375 C 13.101562 -10.503906 13.34375 -9.632812 13.34375 -8.625 C 13.34375 -7.625 13.097656 -6.757812 12.609375 -6.03125 C 12.128906 -5.300781 11.445312 -4.742188 10.5625 -4.359375 L 13.59375 0 Z M 10.171875 -8.625 C 10.171875 -9.382812 9.925781 -9.96875 9.4375 -10.375 C 8.945312 -10.78125 8.234375 -10.984375 7.296875 -10.984375 L 4.734375 -10.984375 L 4.734375 -6.265625 L 7.296875 -6.265625 C 8.234375 -6.265625 8.945312 -6.46875 9.4375 -6.875 C 9.925781 -7.289062 10.171875 -7.875 10.171875 -8.625 Z M 10.171875 -8.625 "/></g></g></g><g fill="#ffffff" fill-opacity="1"><g transform="translate(141.673453, 21.411292)"><g><path d="M 4.40625 -10.984375 L 0.078125 -10.984375 L 0.078125 -13.546875 L 11.875 -13.546875 L 11.875 -10.984375 L 7.546875 -10.984375 L 7.546875 0 L 4.40625 0 Z M 4.40625 -10.984375 "/></g></g></g></svg>